<?xml version="1.0" encoding="UTF-8" standalone="no"?>
<svg
   xmlns:dc="http://purl.org/dc/elements/1.1/"
   xmlns:cc="http://creativecommons.org/ns#"
   xmlns:rdf="http://www.w3.org/1999/02/22-rdf-syntax-ns#"
   xmlns:svg="http://www.w3.org/2000/svg"
   xmlns="http://www.w3.org/2000/svg"
   id="svg4852"
   version="1.1"
   viewBox="0 0 210 297"
   height="297mm"
   width="210mm">
  <defs
     id="defs4846">
    <clipPath
       clipPathUnits="userSpaceOnUse"
       id="clipPath4870">
      <path
         d="M -1224,-792 V 2376 H 3672 V -792 Z"
         id="path4868" />
    </clipPath>
    <clipPath
       clipPathUnits="userSpaceOnUse"
       id="clipPath4878">
      <path
         d="M -1224,-792 V 2376 H 3672 V -792 Z"
         id="path4876" />
    </clipPath>
  </defs>
  <metadata
     id="metadata4849">
    <rdf:RDF>
      <cc:Work
         rdf:about="">
        <dc:format>image/svg+xml</dc:format>
        <dc:type
           rdf:resource="http://purl.org/dc/dcmitype/StillImage" />
        <dc:title></dc:title>
      </cc:Work>
    </rdf:RDF>
  </metadata>
  <g
     id="layer1">
    <g
       id="g4862"
       transform="matrix(0.35277777,0,0,-0.35277777,-7.6003538,550.49655)">
      <g
         id="g4864">
        <g
           id="g4866"
           clip-path="url(#clipPath4870)" />
      </g>
      <g
         id="g4872">
        <g
           id="g4874"
           clip-path="url(#clipPath4878)">
          <g
             id="g4880"
             transform="rotate(179.99427,65.169506,709.87826)">
            <path
               d="M -28.35,0.00272 C -28.3515,-15.65456 -15.65999,-28.3485 -0.00272,-28.35 15.65456,-28.3515 28.3485,-15.65999 28.35,-0.00272 28.3515,15.65456 15.65999,28.3485 0.00272,28.35 -15.65456,28.3515 -28.3485,15.65999 -28.35,0.00272"
               style="fill:none;stroke:#000000;stroke-width:1.44000006;stroke-linecap:round;stroke-linejoin:round;stroke-miterlimit:10;stroke-dasharray:none;stroke-opacity:1"
               id="path4882" />
          </g>
          <g
             id="g4884"
             transform="rotate(179.99427,141.39951,709.88207)">
            <path
               d="M -28.35,0.00272 C -28.3515,-15.65456 -15.65999,-28.3485 -0.00272,-28.35 15.65456,-28.3515 28.3485,-15.65999 28.35,-0.00272 28.3515,15.65456 15.65999,28.3485 0.00272,28.35 -15.65456,28.3515 -28.3485,15.65999 -28.35,0.00272"
               style="fill:none;stroke:#000000;stroke-width:1.44000006;stroke-linecap:round;stroke-linejoin:round;stroke-miterlimit:10;stroke-dasharray:none;stroke-opacity:1"
               id="path4886" />
          </g>
          <g
             id="g4888"
             transform="rotate(179.99427,136.45128,674.33183)">
            <path
               d="M -5.13,4.9e-4 C -5.13027,-2.83273 -2.83371,-5.12973 -4.9e-4,-5.13 2.83273,-5.13027 5.12973,-2.83371 5.13,-4.9e-4 5.13027,2.83273 2.83371,5.12973 4.9e-4,5.13 -2.83273,5.13027 -5.12973,2.83371 -5.13,4.9e-4"
               style="fill:none;stroke:#000000;stroke-width:1.44000006;stroke-linecap:round;stroke-linejoin:round;stroke-miterlimit:10;stroke-dasharray:none;stroke-opacity:1"
               id="path4890" />
          </g>
          <g
             id="g4892"
             transform="rotate(179.99427,69.402994,640.12847)">
            <path
               d="M -5.13,4.9e-4 C -5.13027,-2.83273 -2.83371,-5.12973 -4.9e-4,-5.13 2.83273,-5.13027 5.12973,-2.83371 5.13,-4.9e-4 5.13027,2.83273 2.83371,5.12973 4.9e-4,5.13 -2.83273,5.13027 -5.12973,2.83371 -5.13,4.9e-4"
               style="fill:none;stroke:#000000;stroke-width:1.44000006;stroke-linecap:round;stroke-linejoin:round;stroke-miterlimit:10;stroke-dasharray:none;stroke-opacity:1"
               id="path4894" />
          </g>
          <g
             id="g4896"
             transform="rotate(179.99427,69.401284,674.32848)">
            <path
               d="M -5.13,4.9e-4 C -5.13027,-2.83273 -2.83371,-5.12973 -4.9e-4,-5.13 2.83273,-5.13027 5.12973,-2.83371 5.13,-4.9e-4 5.13027,2.83273 2.83371,5.12973 4.9e-4,5.13 -2.83273,5.13027 -5.12973,2.83371 -5.13,4.9e-4"
               style="fill:none;stroke:#000000;stroke-width:1.44000006;stroke-linecap:round;stroke-linejoin:round;stroke-miterlimit:10;stroke-dasharray:none;stroke-opacity:1"
               id="path4898" />
          </g>
          <g
             id="g4900"
             transform="rotate(179.99427,136.45299,640.13182)">
            <path
               d="M -5.13,4.9e-4 C -5.13027,-2.83273 -2.83371,-5.12973 -4.9e-4,-5.13 2.83273,-5.13027 5.12973,-2.83371 5.13,-4.9e-4 5.13027,2.83273 2.83371,5.12973 4.9e-4,5.13 -2.83273,5.13027 -5.12973,2.83371 -5.13,4.9e-4"
               style="fill:none;stroke:#000000;stroke-width:1.44000006;stroke-linecap:round;stroke-linejoin:round;stroke-miterlimit:10;stroke-dasharray:none;stroke-opacity:1"
               id="path4902" />
          </g>
          <g
             id="g4904"
             transform="rotate(89.99427,-634.74804,726.75457)">
            <path
               d="M 7.11,0 C 7.11,3.92661 3.92695,7.10981 3.4e-4,7.11 -3.92627,7.11019 -7.10962,3.92729 -7.11,6.8e-4"
               style="fill:none;stroke:#000000;stroke-width:1.44000006;stroke-linecap:round;stroke-linejoin:round;stroke-miterlimit:10;stroke-dasharray:none;stroke-opacity:1"
               id="path4906" />
          </g>
          <path
             d="m 92.16,1368.54 h 73.62 v -14.22 H 92.16"
             style="fill:none;stroke:#000000;stroke-width:1.44000006;stroke-linecap:round;stroke-linejoin:round;stroke-miterlimit:10;stroke-dasharray:none;stroke-opacity:1"
             id="path4908" />
          <g
             id="g4910"
             transform="rotate(179.99427,102.60766,746.96009)">
            <path
               d="M -4.41,4.2e-4 C -4.41023,-2.43515 -2.436,-4.40977 -4.2e-4,-4.41 2.43515,-4.41023 4.40977,-2.436 4.41,-4.2e-4 4.41023,2.43515 2.436,4.40977 4.2e-4,4.41 -2.43515,4.41023 -4.40977,2.436 -4.41,4.2e-4"
               style="fill:none;stroke:#000000;stroke-width:1.44000006;stroke-linecap:round;stroke-linejoin:round;stroke-miterlimit:10;stroke-dasharray:none;stroke-opacity:1"
               id="path4912" />
          </g>
          <path
             d="M 319.14001,1354.32 H 245.52 v 14.22 h 73.62001"
             style="fill:none;stroke:#000000;stroke-width:1.44000006;stroke-linecap:round;stroke-linejoin:round;stroke-miterlimit:10;stroke-dasharray:none;stroke-opacity:1"
             id="path4914" />
          <g
             id="g4916"
             transform="matrix(-0.01802,-0.99984,0.99984,-0.01802,319.22998,1361.4299)">
            <path
               d="M 7.11,0 C 7.11,2.56518 5.72825,4.93147 3.49422,6.19213 1.26019,7.45279 -1.47969,7.41234 -3.67552,6.08627 -5.87135,4.7602 -7.18264,2.35414 -7.1069,-0.20992"
               style="fill:none;stroke:#000000;stroke-width:1.44000006;stroke-linecap:round;stroke-linejoin:round;stroke-miterlimit:10;stroke-dasharray:none;stroke-opacity:1"
               id="path4918" />
          </g>
          <g
             id="g4920"
             transform="rotate(179.99427,102.61432,613.76014)">
            <path
               d="M -4.41,4.2e-4 C -4.41023,-2.43515 -2.436,-4.40977 -4.2e-4,-4.41 2.43515,-4.41023 4.40977,-2.436 4.41,-4.2e-4 4.41023,2.43515 2.436,4.40977 4.2e-4,4.41 -2.43515,4.41023 -4.40977,2.436 -4.41,4.2e-4"
               style="fill:none;stroke:#000000;stroke-width:1.44000006;stroke-linecap:round;stroke-linejoin:round;stroke-miterlimit:10;stroke-dasharray:none;stroke-opacity:1"
               id="path4922" />
          </g>
          <path
             d="m 241.38,1401.21 c 0,1.5407 -1.24896,2.7899 -2.78973,2.79"
             style="fill:none;stroke:#000000;stroke-width:1.44000006;stroke-linecap:round;stroke-linejoin:round;stroke-miterlimit:10;stroke-dasharray:none;stroke-opacity:1"
             id="path4924" />
          <path
             d="M 173.34,1404 H 238.5"
             style="fill:none;stroke:#000000;stroke-width:1.44000006;stroke-linecap:round;stroke-linejoin:round;stroke-miterlimit:10;stroke-dasharray:none;stroke-opacity:1"
             id="path4926" />
          <g
             id="g4928"
             transform="rotate(89.99427,-613.96005,787.32864)">
            <path
               d="M 2.79,0 C 2.79,1.54077 1.54104,2.78985 2.7e-4,2.79"
               style="fill:none;stroke:#000000;stroke-width:1.44000006;stroke-linecap:round;stroke-linejoin:round;stroke-miterlimit:10;stroke-dasharray:none;stroke-opacity:1"
               id="path4930" />
          </g>
          <path
             d="m 170.46001,1321.74 v 79.38"
             style="fill:none;stroke:#000000;stroke-width:1.44000006;stroke-linecap:round;stroke-linejoin:round;stroke-miterlimit:10;stroke-dasharray:none;stroke-opacity:1"
             id="path4932" />
          <g
             id="g4934"
             transform="rotate(179.99427,86.681949,660.91937)">
            <path
               d="M 2.79,0 C 2.79,1.54077 1.54104,2.78985 2.7e-4,2.79"
               style="fill:none;stroke:#000000;stroke-width:1.44000006;stroke-linecap:round;stroke-linejoin:round;stroke-miterlimit:10;stroke-dasharray:none;stroke-opacity:1"
               id="path4936" />
          </g>
          <path
             d="M 238.5,1319.04 H 173.34"
             style="fill:none;stroke:#000000;stroke-width:1.44000006;stroke-linecap:round;stroke-linejoin:round;stroke-miterlimit:10;stroke-dasharray:none;stroke-opacity:1"
             id="path4938" />
          <g
             id="g4940"
             transform="rotate(-90.00573,780.14395,541.63197)">
            <path
               d="M 2.79,0 C 2.79,1.54077 1.54104,2.78985 2.7e-4,2.79"
               style="fill:none;stroke:#000000;stroke-width:1.44000006;stroke-linecap:round;stroke-linejoin:round;stroke-miterlimit:10;stroke-dasharray:none;stroke-opacity:1"
               id="path4942" />
          </g>
          <path
             d="m 241.38,1401.12 v -79.38"
             style="fill:none;stroke:#000000;stroke-width:1.44000006;stroke-linecap:round;stroke-linejoin:round;stroke-miterlimit:10;stroke-dasharray:none;stroke-opacity:1"
             id="path4944" />
          <g
             id="g4946"
             transform="rotate(179.99427,102.88096,680.72017)">
            <path
               d="M -141.75,0.01359 C -141.75751,-78.27277 -78.29996,-141.74249 -0.01359,-141.75 78.27277,-141.75751 141.74249,-78.29996 141.75,-0.01359 141.75751,78.27277 78.29996,141.74249 0.01359,141.75 -78.27277,141.75751 -141.74249,78.29996 -141.75,0.01359"
               style="fill:none;stroke:#000000;stroke-width:1.44000006;stroke-linecap:round;stroke-linejoin:round;stroke-miterlimit:10;stroke-dasharray:none;stroke-opacity:1"
               id="path4948" />
          </g>
        </g>
      </g>
    </g>
  </g>
</svg>
